<?xml version="1.0" encoding="UTF-8" standalone="no"?>
<!-- Created with Inkscape (http://www.inkscape.org/) -->

<svg
   width="32"
   height="32"
   viewBox="0 0 32 32"
   version="1.1"
   id="svg5"
   xml:space="preserve"
   inkscape:version="1.2.2 (732a01da63, 2022-12-09)"
   sodipodi:docname="fnf-arrow.svg"
   xmlns:inkscape="http://www.inkscape.org/namespaces/inkscape"
   xmlns:sodipodi="http://sodipodi.sourceforge.net/DTD/sodipodi-0.dtd"
   xmlns="http://www.w3.org/2000/svg"
   xmlns:svg="http://www.w3.org/2000/svg"><sodipodi:namedview
     id="namedview7"
     pagecolor="#ffffff"
     bordercolor="#000000"
     borderopacity="0.25"
     inkscape:showpageshadow="2"
     inkscape:pageopacity="0"
     inkscape:pagecheckerboard="0"
     inkscape:deskcolor="#d1d1d1"
     inkscape:document-units="px"
     showgrid="false"
     inkscape:zoom="18.007537"
     inkscape:cx="13.299987"
     inkscape:cy="15.965537"
     inkscape:window-width="1920"
     inkscape:window-height="1001"
     inkscape:window-x="-9"
     inkscape:window-y="-9"
     inkscape:window-maximized="1"
     inkscape:current-layer="layer1" /><defs
     id="defs2" /><g
     inkscape:label="Vrstva 1"
     inkscape:groupmode="layer"
     id="layer1"><path
       style="display:inline;fill:#ffffff;stroke:#ffffff;stroke-width:0.056;stroke-dasharray:none;stroke-opacity:1"
       d="M 14.270771,31.853872 C 12.847858,31.468292 11.364488,30.648651 10.134645,29.56844 9.0403581,28.607292 6.7478829,26.256906 6.2372845,25.572626 4.8596292,23.726358 1.7329272,18.703571 0.71984737,16.709321 0.02164593,15.334911 -0.06912779,14.979739 0.11719042,14.351297 0.25938013,13.871697 0.39444939,13.655035 0.84568324,13.182734 1.4698578,12.529418 3.3849811,11.152692 5.4683987,9.8595995 7.0048881,8.9059632 7.3371112,8.7866832 7.7995881,9.0226216 8.1256133,9.188947 8.8721907,9.973855 9.401037,10.706292 c 0.5492034,0.76063 0.63236,0.795684 0.684531,0.288557 0.01882,-0.182956 0.03799,-2.1167002 0.0426,-4.2972106 l 0.0084,-3.9645638 0.175392,-0.3290693 c 0.22094,-0.4145256 0.795794,-1.03915 1.223917,-1.3298827 0.545602,-0.37051121 1.3706,-0.67215781 2.423494,-0.88610928 1.313176,-0.26684144 4.165537,-0.16360152 5.741438,0.20780872 0.328579,0.0774399 0.403839,0.12065801 0.601854,0.34561451 0.268572,0.30511445 0.623128,1.01410365 0.740055,1.47985565 0.214413,0.8540677 0.297296,2.3449977 0.362661,6.5236957 0.0283,1.8094141 0.06374,3.3021211 0.07875,3.3171271 0.05671,0.05671 0.169524,-0.07753 1.048181,-1.247226 1.637345,-2.179688 2.187904,-2.6238742 3.252231,-2.6238742 0.584412,0 0.758003,0.080813 1.309036,0.6094076 1.521226,1.4592806 4.865297,5.9848626 4.865297,6.5842806 0,0.440196 -1.18451,2.33895 -2.796312,4.482451 -1.062269,1.412689 -3.255033,4.207954 -4.064291,5.181027 -1.610575,1.936597 -3.70794,4.139037 -4.624295,4.855965 -1.185906,0.927816 -2.528753,1.675718 -3.39776,1.892393 -0.697563,0.173928 -2.257493,0.205807 -2.805412,0.05733 z m 11.55322,-21.764034 c -0.0171,-0.0171 -0.06191,-3.5e-5 -0.09958,0.03792 -0.05444,0.05485 -0.04806,0.06122 0.03109,0.03109 0.05477,-0.02085 0.08559,-0.05191 0.06849,-0.069 z"
       id="path329" /></g></svg>
